<svg width="50" height="50" viewBox="0 0 50 50" fill="none" xmlns="http://www.w3.org/2000/svg">
<path fill-rule="evenodd" clip-rule="evenodd" d="M29.8889 6.20638C29.8889 4.43555 28.4533 3 26.6825 3H23.3175C21.5467 3 20.1111 4.43555 20.1111 6.20638V6.83475C20.1111 7.88053 19.4093 8.78906 18.4434 9.19004C17.4772 9.5912 16.3522 9.43832 15.6125 8.69856L14.9362 8.02231C13.5125 6.59859 11.2042 6.59859 9.78052 8.02231L8.02228 9.78055C6.59859 11.2042 6.59859 13.5125 8.02228 14.9362L8.69856 15.6125C9.43832 16.3523 9.5912 17.4772 9.19004 18.4434C8.78906 19.4093 7.88053 20.1111 6.83477 20.1111H6.20638C4.43555 20.1111 3 21.5467 3 23.3175V26.6825C3 28.4533 4.43555 29.8889 6.20638 29.8889H7.20388C8.03064 29.8889 8.75095 30.4411 9.0512 31.2116C9.33972 31.9518 9.20219 32.7992 8.64036 33.3612L7.8621 34.1395C6.52684 35.4747 6.52684 37.6395 7.8621 38.9749L10.2206 41.3333C11.4012 42.514 13.3154 42.514 14.4961 41.3333L14.6049 41.2245C15.524 40.3054 16.933 40.1502 18.1231 40.673C19.268 41.1761 20.1111 42.26 20.1111 43.5106V43.7936C20.1111 45.5644 21.5467 47 23.3175 47H26.6825C28.4533 47 29.8889 45.5644 29.8889 43.7936V43.1652C29.8889 42.1194 30.5907 41.2108 31.5565 40.8099C32.5228 40.4088 33.6477 40.5616 34.3874 41.3015L34.6003 41.5144C35.681 42.5951 37.4332 42.5951 38.5139 41.5144L41.5144 38.5139C42.5951 37.4332 42.5951 35.681 41.5144 34.6003L41.3015 34.3874C40.5616 33.6477 40.4088 32.5228 40.8099 31.5565C41.2108 30.5907 42.1194 29.8889 43.1652 29.8889H43.7936C45.5644 29.8889 47 28.4533 47 26.6825V23.3175C47 21.5467 45.5644 20.1111 43.7936 20.1111H43.5106C42.26 20.1111 41.1761 19.268 40.673 18.1231C40.1502 16.933 40.3054 15.524 41.2245 14.6049L41.3333 14.4961C42.514 13.3155 42.514 11.4013 41.3333 10.2207L38.9746 7.8621C37.6395 6.52687 35.4747 6.52687 34.1395 7.8621L33.3612 8.64036C32.7992 9.20219 31.9518 9.33972 31.2116 9.0512C30.4411 8.75095 29.8889 8.03064 29.8889 7.20386V6.20638ZM25 32.3333C29.0502 32.3333 32.3333 29.0502 32.3333 25C32.3333 20.9498 29.0502 17.6667 25 17.6667C20.9498 17.6667 17.6667 20.9498 17.6667 25C17.6667 29.0502 20.9498 32.3333 25 32.3333Z" stroke="#BD7467" stroke-width="5" stroke-linejoin="round"/>
</svg>
