<svg width="40" height="24" viewBox="0 0 40 24" fill="none" xmlns="http://www.w3.org/2000/svg">
<ellipse cx="28" cy="6.79245" rx="6.75" ry="6.79245" fill="#A55446"/>
<path d="M34.7236 12.8109C37.9074 14.3717 40 17.0091 40 20.0004H16C16 17.0093 18.092 14.3717 21.2754 12.8109C22.9239 14.6747 25.3255 15.849 28 15.849C30.6743 15.849 33.0752 14.6744 34.7236 12.8109Z" fill="#A55446"/>
<ellipse cx="12" cy="6.79245" rx="6.75" ry="6.79245" fill="#A55446"/>
<path d="M18.7236 12.8109C21.9074 14.3717 24 17.0091 24 20.0004H0C3.64618e-05 17.0093 2.09205 14.3717 5.27539 12.8109C6.92385 14.6747 9.32546 15.849 12 15.849C14.6743 15.849 17.0752 14.6744 18.7236 12.8109Z" fill="#A55446"/>
<ellipse cx="20" cy="10.7925" rx="6.75" ry="6.79245" fill="#BD7467"/>
<path d="M26.7236 16.8109C29.9074 18.3717 32 21.0091 32 24.0004H8C8.00004 21.0093 10.092 18.3717 13.2754 16.8109C14.9239 18.6747 17.3255 19.849 20 19.849C22.6743 19.849 25.0752 18.6744 26.7236 16.8109Z" fill="#BD7467"/>
</svg>
