<?xml version="1.0" encoding="UTF-8"?>
<svg id="Layer_1" data-name="Layer 1" xmlns="http://www.w3.org/2000/svg" viewBox="0 0 500 500">
  <defs>
    <style>
      .cls-1, .cls-2 {
        fill: #c96f63;
      }

      .cls-3 {
        fill: #fff;
      }

      .cls-2 {
        fill-rule: evenodd;
      }
    </style>
  </defs>
  <path class="cls-2" d="M260.43,471.34c-5.74,5.77-15.07,5.78-20.84.04-.01-.01-.03-.03-.04-.04l-.09-.1-.25-.25-.91-.93c-5.19-5.35-10.3-10.78-15.32-16.3-12.61-13.81-24.68-28.11-36.19-42.85-13.14-16.94-26.58-36.1-36.79-55.02-9.99-18.55-17.87-38.65-17.87-57.04,0-66.88,52.92-117.87,117.87-117.87s117.87,50.99,117.87,117.87c0,18.39-7.88,38.49-17.87,57.02-10.21,18.95-23.63,38.09-36.79,55.03-16.1,20.62-33.29,40.36-51.51,59.14l-.91.93-.25.25-.09.09M250,343.06c24.41,0,44.2-19.79,44.2-44.2s-19.79-44.2-44.2-44.2-44.2,19.79-44.2,44.2,19.79,44.2,44.2,44.2Z"/>
  <path class="cls-3" d="M334.45,43.94c-12.19-.23-23.56,3.18-33.12,9.2-10.56-17.28-29.59-28.81-51.33-28.81s-40.77,11.53-51.33,28.81c-9.56-6.02-20.93-9.43-33.12-9.2-32.48.62-58.92,27.57-58.95,60.06-.02,33.22,26.9,60.15,60.11,60.15,2.63,0,5.21-.19,7.75-.51v72.98c0,4.02,3.26,7.28,7.28,7.28h140.19c4.02,0,7.28-3.26,7.28-7.28v-72.62c1.34.09,2.69.15,4.06.15,33.21,0,60.13-26.94,60.11-60.15s-26.46-59.44-58.95-60.06Z"/>
  <path class="cls-1" d="M205.88,87.6c4.55,10.67,11.24,20.38,19.55,28.47,2.31,2.25,5.84-1.28,3.54-3.54-8.03-7.82-14.37-17.15-18.76-27.46-.53-1.24-2.36-1.52-3.42-.9-1.29.75-1.43,2.17-.9,3.42h0Z"/>
  <path class="cls-1" d="M273.47,115.14c8.56-3.89,16.34-9.43,22.86-16.2,2.23-2.32-1.3-5.86-3.54-3.54-6.25,6.49-13.64,11.69-21.85,15.42-1.23.56-1.53,2.34-.9,3.42.74,1.26,2.19,1.46,3.42.9h0Z"/>
  <path class="cls-1" d="M234.63,165.41c2.12,5.18,5.34,9.81,9.65,13.41,1.48,1.24,3.53.77,4.18-1.1.17-.49.35-.99.55-1.47-.15.36.16-.35.16-.36.09-.2.18-.4.28-.59.44-.9.93-1.78,1.46-2.63,1.06-1.68,2.04-2.86,3.56-4.35.94-.92.99-2.63,0-3.54s-2.54-.98-3.54,0c-3.32,3.25-5.79,7.22-7.31,11.61l4.18-1.1c-.99-.82-1.93-1.7-2.81-2.64-.41-.44-.81-.88-1.19-1.34-.16-.2-.33-.4-.49-.6-.18-.23-.21-.27-.08-.1-.1-.14-.21-.27-.31-.41-.71-.97-1.36-1.97-1.95-3.02-.3-.52-.58-1.05-.84-1.59-.15-.31-.3-.62-.44-.93-.07-.16-.14-.31-.21-.47.08.2.07.17-.05-.11-.49-1.21-1.68-2.2-3.08-1.75-1.16.38-2.28,1.78-1.75,3.08h0Z"/>
  <circle class="cls-1" cx="212.6" cy="133.29" r="13.24"/>
  <circle class="cls-1" cx="278.77" cy="143.75" r="15.75"/>
</svg>