<svg width="43" height="53" viewBox="0 0 43 53" fill="none" xmlns="http://www.w3.org/2000/svg">
<path fill-rule="evenodd" clip-rule="evenodd" d="M23.4025 52.2201C22.3555 53.2578 20.6536 53.2597 19.6012 52.2273L19.5939 52.2201L19.5775 52.2022L19.5319 52.1572L19.3659 51.9899C18.4192 51.0278 17.4871 50.0512 16.5714 49.0585C14.2713 46.5748 12.0697 44.003 9.97022 41.352C7.57343 38.3054 5.12191 34.8596 3.25956 31.4569C1.43735 28.1208 0 24.5058 0 21.1985C0 9.17036 9.65284 0 21.5 0C33.3472 0 43 9.17036 43 21.1985C43 24.5058 41.5627 28.1207 39.7404 31.4533C37.8781 34.8614 35.4302 38.3036 33.0298 41.3502C30.0931 45.0587 26.9575 48.6088 23.6341 51.9863L23.4681 52.1536L23.4225 52.1986L23.4061 52.2148M21.5 29.1495C25.9525 29.1495 29.5623 25.5903 29.5623 21.2003C29.5623 16.8102 25.9525 13.2511 21.5 13.2511C17.0475 13.2511 13.4377 16.8102 13.4377 21.2003C13.4377 25.5903 17.0475 29.1495 21.5 29.1495Z" fill="#BD7467"/>
</svg>
